<svg xmlns="http://www.w3.org/2000/svg" viewBox="0 0 16 16" shape-rendering="crispEdges"><rect x="0" y="0" width="7" height="1" fill="#33294B"/><rect x="7" y="0" width="1" height="1" fill="#FF6054"/><rect x="8" y="0" width="8" height="1" fill="#33294B"/><rect x="0" y="1" width="7" height="1" fill="#33294B"/><rect x="7" y="1" width="1" height="1" fill="#241D34"/><rect x="8" y="1" width="8" height="1" fill="#33294B"/><rect x="0" y="2" width="7" height="1" fill="#33294B"/><rect x="7" y="2" width="1" height="1" fill="#241D34"/><rect x="8" y="2" width="8" height="1" fill="#33294B"/><rect x="0" y="3" width="7" height="1" fill="#33294B"/><rect x="7" y="3" width="1" height="1" fill="#241D34"/><rect x="8" y="3" width="8" height="1" fill="#33294B"/><rect x="0" y="4" width="6" height="1" fill="#54405F"/><rect x="6" y="4" width="1" height="1" fill="#2E2541"/><rect x="7" y="4" width="1" height="1" fill="#FF96CD"/><rect x="8" y="4" width="1" height="1" fill="#2E2541"/><rect x="9" y="4" width="7" height="1" fill="#54405F"/><rect x="0" y="5" width="6" height="1" fill="#54405F"/><rect x="6" y="5" width="3" height="1" fill="#2E2541"/><rect x="9" y="5" width="7" height="1" fill="#54405F"/><rect x="0" y="6" width="7" height="1" fill="#54405F"/><rect x="7" y="6" width="1" height="1" fill="#241D34"/><rect x="8" y="6" width="8" height="1" fill="#54405F"/><rect x="0" y="7" width="6" height="1" fill="#87596A"/><rect x="6" y="7" width="1" height="1" fill="#241D34"/><rect x="7" y="7" width="1" height="1" fill="#87596A"/><rect x="8" y="7" width="1" height="1" fill="#241D34"/><rect x="9" y="7" width="7" height="1" fill="#87596A"/><rect x="0" y="8" width="5" height="1" fill="#87596A"/><rect x="5" y="8" width="5" height="1" fill="#2E2541"/><rect x="10" y="8" width="6" height="1" fill="#87596A"/><rect x="0" y="9" width="4" height="1" fill="#87596A"/><rect x="4" y="9" width="5" height="1" fill="#2E2541"/><rect x="9" y="9" width="1" height="1" fill="#FF96CD"/><rect x="10" y="9" width="1" height="1" fill="#2E2541"/><rect x="11" y="9" width="5" height="1" fill="#87596A"/><rect x="0" y="10" width="4" height="1" fill="#C38E6A"/><rect x="4" y="10" width="7" height="1" fill="#2E2541"/><rect x="11" y="10" width="5" height="1" fill="#C38E6A"/><rect x="0" y="11" width="5" height="1" fill="#C38E6A"/><rect x="5" y="11" width="5" height="1" fill="#2E2541"/><rect x="10" y="11" width="6" height="1" fill="#C38E6A"/><rect x="0" y="12" width="5" height="1" fill="#EDB98C"/><rect x="5" y="12" width="1" height="1" fill="#241D34"/><rect x="6" y="12" width="1" height="1" fill="#EDB98C"/><rect x="7" y="12" width="1" height="1" fill="#241D34"/><rect x="8" y="12" width="1" height="1" fill="#EDB98C"/><rect x="9" y="12" width="1" height="1" fill="#241D34"/><rect x="10" y="12" width="6" height="1" fill="#EDB98C"/><rect x="0" y="13" width="4" height="1" fill="#EDB98C"/><rect x="4" y="13" width="1" height="1" fill="#241D34"/><rect x="5" y="13" width="2" height="1" fill="#EDB98C"/><rect x="7" y="13" width="1" height="1" fill="#241D34"/><rect x="8" y="13" width="2" height="1" fill="#EDB98C"/><rect x="10" y="13" width="1" height="1" fill="#241D34"/><rect x="11" y="13" width="5" height="1" fill="#EDB98C"/><rect x="0" y="14" width="16" height="1" fill="#E0A87A"/><rect x="0" y="15" width="16" height="1" fill="#191426"/></svg>
